<svg width="10" height="6" viewBox="0 0 10 6" fill="none" xmlns="http://www.w3.org/2000/svg">
<path d="M0.129395 0.158478L2.05811 1.58719L2.06299 1.59012L3.99072 3.37625L3.99365 3.3782C4.07212 3.46072 4.17662 3.57586 4.28857 3.66922C4.34442 3.71579 4.40088 3.75578 4.45459 3.78348C4.5086 3.8113 4.5569 3.82516 4.59814 3.82352C4.64043 3.82179 4.69048 3.80537 4.74561 3.77664C4.80023 3.74815 4.85724 3.70859 4.91357 3.66336C5.02636 3.57282 5.13246 3.46239 5.20557 3.38016L5.20752 3.3782C5.20807 3.37761 5.20844 3.37638 5.20947 3.37527C5.21175 3.37283 5.21579 3.36927 5.22021 3.36453C5.22899 3.35513 5.24168 3.34117 5.2583 3.32352C5.29204 3.28769 5.34172 3.23579 5.40283 3.17215C5.52523 3.0447 5.69654 2.8685 5.89111 2.67703C6.27925 2.2951 6.76398 1.84642 7.14307 1.58621C7.37955 1.42366 7.86064 1.06676 8.28369 0.752228C8.49492 0.595179 8.69169 0.448287 8.83545 0.342072C8.90711 0.289126 8.96638 0.246509 9.00732 0.217072C9.02749 0.202577 9.0438 0.19059 9.05518 0.182892C9.0607 0.179156 9.06661 0.175589 9.0708 0.173126C9.07248 0.172139 9.07569 0.169876 9.07959 0.168243C9.08053 0.167857 9.0881 0.164881 9.09717 0.164337C9.10163 0.164095 9.11452 0.163825 9.12744 0.17215C9.14431 0.183097 9.14979 0.200806 9.1499 0.214142C9.1493 0.221806 9.14637 0.23229 9.14502 0.235626C9.14438 0.236919 9.14372 0.239375 9.14307 0.240509C9.14214 0.242024 9.14067 0.243659 9.14014 0.244415C9.13901 0.245998 9.13737 0.247827 9.13623 0.249298C9.13384 0.252381 9.13053 0.256998 9.12646 0.261993C9.11829 0.27203 9.10662 0.286606 9.09131 0.304962C9.06013 0.342328 9.01372 0.396443 8.95557 0.465118C8.83919 0.602554 8.67276 0.798458 8.47217 1.0325C8.07103 1.50053 7.53372 2.1233 6.98779 2.74539C6.44183 3.36753 5.88652 3.98973 5.45166 4.45633C5.23458 4.68924 5.04691 4.88402 4.90479 5.02078C4.83388 5.089 4.77347 5.14409 4.72607 5.18192C4.70245 5.20076 4.68023 5.21577 4.66162 5.22684C4.65233 5.23236 4.64265 5.2378 4.6333 5.24149C4.6245 5.24492 4.61293 5.24832 4.6001 5.24832C4.57679 5.24832 4.55326 5.23793 4.53467 5.22781C4.51441 5.21675 4.4912 5.20171 4.46631 5.18289C4.41595 5.1448 4.35278 5.08938 4.27979 5.02078C4.13368 4.88347 3.94353 4.68795 3.7251 4.45438C3.28756 3.9865 2.73436 3.3626 2.19189 2.73953C1.64937 2.1164 1.11703 1.49299 0.720215 1.02567C0.521798 0.791996 0.356615 0.597531 0.241699 0.461212C0.184363 0.393197 0.139579 0.339525 0.108887 0.303009C0.0935381 0.284749 0.0816531 0.270455 0.0737305 0.261017C0.0698051 0.256341 0.0669538 0.252673 0.0649414 0.250275C0.0639859 0.249136 0.0634946 0.247949 0.0629883 0.247345H0.0620117L0.050293 0.232697L0.050293 0.0989075L0.129395 0.158478Z" fill="#BCA489" stroke="#BFA88F" stroke-width="0.1"/>
</svg>
