<svg width="26" height="12" viewBox="0 0 26 12" fill="none" xmlns="http://www.w3.org/2000/svg">
<path d="M19.9542 3.77547e-07C19.1312 -0.000289641 18.3168 0.16651 17.5612 0.490127C16.8056 0.813744 16.1248 1.28733 15.5607 1.88172C14.8231 1.3222 13.9204 1.01903 12.9918 1.01903C12.0632 1.01903 11.1604 1.3222 10.4229 1.88172C9.36124 0.77295 7.9124 0.108631 6.37301 0.0247954C4.83362 -0.0590399 3.32015 0.443952 2.1425 1.43078C0.964854 2.4176 0.212134 3.81359 0.0384704 5.33291C-0.135194 6.85222 0.283337 8.3799 1.20836 9.60314C2.13339 10.8264 3.49492 11.6526 5.01417 11.9127C6.53342 12.1727 8.09543 11.8469 9.38037 11.002C10.6653 10.1571 11.576 8.8569 11.9258 7.36775C12.2757 5.8786 12.0384 4.31313 11.2624 2.99189C11.7581 2.61222 12.3668 2.40628 12.9932 2.40628C13.6195 2.40628 14.2282 2.61222 14.724 2.99189C14.0573 4.13434 13.7894 5.46309 13.9619 6.77196C14.1345 8.08083 14.7377 9.29663 15.6781 10.2307C16.6186 11.1648 17.8435 11.7649 19.163 11.938C20.4824 12.1111 21.8226 11.8474 22.9755 11.1879C24.1284 10.5284 25.0296 9.50989 25.5393 8.2905C26.0489 7.07111 26.1385 5.71898 25.7942 4.44391C25.4499 3.16885 24.6908 2.04215 23.6349 1.23863C22.5789 0.435117 21.2851 -0.000279985 19.9542 3.77547e-07ZM6.02938 10.6076C5.11007 10.6076 4.2114 10.3372 3.44702 9.83068C2.68264 9.32413 2.08688 8.60416 1.73507 7.7618C1.38326 6.91944 1.29122 5.99254 1.47056 5.09829C1.64991 4.20405 2.09261 3.38264 2.74266 2.73792C3.39271 2.09321 4.22093 1.65416 5.12258 1.47628C6.02423 1.29841 6.95881 1.3897 7.80815 1.73861C8.65748 2.08753 9.38342 2.6784 9.89416 3.4365C10.4049 4.1946 10.6775 5.08589 10.6775 5.99765C10.676 7.21983 10.1858 8.39154 9.31447 9.25575C8.4431 10.12 7.26169 10.6061 6.02938 10.6076ZM19.9542 10.6076C19.0349 10.6076 18.1362 10.3372 17.3718 9.83068C16.6074 9.32413 16.0117 8.60416 15.6599 7.7618C15.3081 6.91944 15.216 5.99254 15.3954 5.09829C15.5747 4.20405 16.0174 3.38264 16.6675 2.73792C17.3175 2.09321 18.1457 1.65416 19.0474 1.47628C19.949 1.29841 20.8836 1.3897 21.7329 1.73861C22.5823 2.08753 23.3082 2.6784 23.819 3.4365C24.3297 4.1946 24.6023 5.08589 24.6023 5.99765C24.6008 7.21983 24.1106 8.39154 23.2393 9.25575C22.3679 10.12 21.1865 10.6061 19.9542 10.6076Z" fill="#887B61"/>
</svg>
