<svg width="21" height="21" viewBox="0 0 21 21" fill="none" xmlns="http://www.w3.org/2000/svg">
<path d="M10.6709 0.5C16.1741 0.50024 20.4999 4.98297 20.5 10.5303V10.5322C20.5089 13.1484 19.4836 15.6612 17.6504 17.5186C15.8172 19.3757 13.3255 20.4255 10.7227 20.4395C9.71583 20.4393 9.02144 20.3654 8.38867 20.1621C7.75576 19.9587 7.14911 19.6148 6.33594 19.0244L5.94336 18.7402L5.64648 19.123C5.21068 19.6857 4.23234 20.2428 3.33203 20.4336C2.88363 20.5286 2.53077 20.5156 2.31055 20.4307C2.20843 20.3912 2.14366 20.3401 2.10156 20.2842C2.06044 20.2294 2.02109 20.1428 2.00879 19.999C2.00374 18.5767 1.68789 17.3754 1.35059 16.1299H1.35156C0.946747 14.5839 0.5 12.9089 0.5 10.4746C0.500253 4.79094 5.14253 0.5 10.6709 0.5ZM10.8369 4.66797C7.7235 4.50661 5.33629 6.69068 4.81641 9.97363V9.97461C4.60533 11.3133 4.6879 12.7815 4.89941 13.9365C5.00516 14.5138 5.14608 15.0321 5.30957 15.4277C5.39076 15.6242 5.48488 15.8079 5.59375 15.957C5.67989 16.075 5.81597 16.228 6.01172 16.3076L6.09961 16.3369L6.11035 16.3398C6.35708 16.3995 6.59209 16.3097 6.72363 16.25C6.88141 16.1784 7.0441 16.0756 7.19531 15.9678C7.38817 15.8303 7.58548 15.6654 7.7666 15.502C8.51161 15.9435 9.34778 16.2115 10.2139 16.2812L10.2217 16.2822H10.2305C11.7655 16.3563 13.2682 15.8231 14.415 14.7969C15.49 13.8349 16.1719 12.5119 16.3379 11.083L16.3643 10.7959L16.3652 10.7812C16.4251 9.24001 15.8797 7.73622 14.8467 6.59375C13.92 5.56897 12.6668 4.90972 11.3105 4.7207V4.69238L10.8369 4.66797Z" fill="#887B61" stroke="white"/>
</svg>
