<svg width="274" height="278" viewBox="0 0 274 278" fill="none" xmlns="http://www.w3.org/2000/svg">
<mask id="mask0_136_2111" style="mask-type:alpha" maskUnits="userSpaceOnUse" x="0" y="0" width="274" height="278">
<rect width="274" height="278" fill="white"/>
</mask>
<g mask="url(#mask0_136_2111)">
<rect x="-696.627" width="970.627" height="278" fill="white"/>
<mask id="mask1_136_2111" style="mask-type:alpha" maskUnits="userSpaceOnUse" x="-89" y="-20" width="414" height="484">
<rect x="-88.9741" y="-19.0686" width="413.528" height="482.736" rx="12" fill="url(#paint0_radial_136_2111)"/>
</mask>
<g mask="url(#mask1_136_2111)">
<path d="M66.4064 -77.2782V-33.9032M66.4064 278V155.821M66.4064 155.821L-35.3877 243.565M66.4064 155.821V-33.9032M66.4064 -33.9032L118.805 11.1274M118.805 11.1274V-77.2782M118.805 11.1274V33.3116M118.805 278V33.3116M118.805 33.3116L221.935 121.055M221.935 121.055V278M221.935 121.055V78.3422M221.935 -77.2782V78.3422M221.935 78.3422L275.335 33.3116M275.335 33.3116V278M275.335 33.3116V-33.9032M275.335 -77.2782V-33.9032M275.335 -33.9032L377.129 53.178" stroke="url(#paint1_linear_136_2111)" stroke-width="1.4"/>
</g>
</g>
<defs>
<radialGradient id="paint0_radial_136_2111" cx="0" cy="0" r="1" gradientUnits="userSpaceOnUse" gradientTransform="translate(117.79 98.8089) rotate(90) scale(339.599 290.912)">
<stop stop-color="#CDCDCD"/>
<stop offset="0.950922" stop-color="white" stop-opacity="0.32"/>
</radialGradient>
<linearGradient id="paint1_linear_136_2111" x1="169.575" y1="-77.2782" x2="169.575" y2="278" gradientUnits="userSpaceOnUse">
<stop offset="0.182416" stop-color="#EBE8D8" stop-opacity="0"/>
<stop offset="0.374742" stop-color="#EBE8D8"/>
<stop offset="0.736039" stop-color="#EBE8D8" stop-opacity="0.42"/>
<stop offset="1" stop-color="#EBE8D8"/>
</linearGradient>
</defs>
</svg>
