<svg width="201" height="137" viewBox="0 0 201 137" fill="none" xmlns="http://www.w3.org/2000/svg">
<mask id="mask0_78_98" style="mask-type:alpha" maskUnits="userSpaceOnUse" x="0" y="0" width="201" height="137">
<rect width="201" height="137" fill="white"/>
</mask>
<g mask="url(#mask0_78_98)">
<rect x="-749.976" y="-12.3921" width="961.359" height="277.392" fill="white"/>
<mask id="mask1_78_98" style="mask-type:alpha" maskUnits="userSpaceOnUse" x="-149" y="-32" width="411" height="483">
<rect x="-148.126" y="-31.4189" width="409.579" height="481.681" rx="12" fill="url(#paint0_radial_78_98)"/>
</mask>
<g mask="url(#mask1_78_98)">
<path d="M105.036 -48.6657L-10 187.34H105.036M105.036 -48.6657V187.34M105.036 -48.6657L218.61 194.773L105.036 187.34M105.036 -48.6657H-10L105.036 187.34M105.036 -48.6657L223 -63.7855L105.036 187.34M105.036 -48.6657V-88M105.036 225V187.34M221.537 69.5461H-10" stroke="url(#paint1_linear_78_98)" stroke-width="1.4"/>
</g>
</g>
<defs>
<radialGradient id="paint0_radial_78_98" cx="0" cy="0" r="1" gradientUnits="userSpaceOnUse" gradientTransform="translate(56.6635 86.2008) rotate(90) scale(338.857 288.134)">
<stop stop-color="#CDCDCD"/>
<stop offset="0.950922" stop-color="white" stop-opacity="0.32"/>
</radialGradient>
<linearGradient id="paint1_linear_78_98" x1="105.768" y1="-88" x2="105.768" y2="225" gradientUnits="userSpaceOnUse">
<stop offset="0.182416" stop-color="#EBE8D8" stop-opacity="0"/>
<stop offset="0.374742" stop-color="#EBE8D8"/>
<stop offset="0.736039" stop-color="#EBE8D8" stop-opacity="0.42"/>
<stop offset="1" stop-color="#EBE8D8"/>
</linearGradient>
</defs>
</svg>
