<svg width="239" height="278" viewBox="0 0 239 278" fill="none" xmlns="http://www.w3.org/2000/svg">
<path d="M-41.1204 247.711L-222.579 66.1321M-41.1204 247.711V699M-41.1204 247.711V161.86M-222.579 66.1321L-119.322 -37.1933M-222.579 66.1321V699M-41.1204 -115.447V-256L-222.579 -76.7001V-138.999M-41.1204 -115.447V38.7812M-41.1204 -115.447L-119.322 -37.1933M-41.1204 38.7812L-119.322 -37.1933M-41.1204 38.7812L140.338 220.36M-41.1204 38.7812V161.86M-222.579 -256V-138.999M-222.579 -138.999L-307.614 -221.936M-342.539 -256L-307.614 -221.936M-307.614 -221.936L-401 -129.882M140.338 220.36V247.711M140.338 220.36V117.795M140.338 -256V-18.9594M140.338 699V485.512M140.338 247.711L258.02 366.991M140.338 247.711V485.512M140.338 485.512L318 308.491M140.338 117.795L269.409 247.711M140.338 117.795V-18.9594M140.338 -18.9594L318 158.061M-41.1204 161.86L318 -197.5" stroke="url(#paint0_linear_136_2104)" stroke-width="1.4"/>
<defs>
<linearGradient id="paint0_linear_136_2104" x1="-43.7578" y1="-256" x2="-43.7578" y2="699" gradientUnits="userSpaceOnUse">
<stop offset="0.182416" stop-color="#EBE8D8" stop-opacity="0"/>
<stop offset="0.374742" stop-color="#EBE8D8"/>
<stop offset="0.736039" stop-color="#EBE8D8" stop-opacity="0.42"/>
<stop offset="1" stop-color="#EBE8D8"/>
</linearGradient>
</defs>
</svg>
