<svg width="274" height="278" viewBox="0 0 274 278" fill="none" xmlns="http://www.w3.org/2000/svg">
<mask id="mask0_136_2124" style="mask-type:alpha" maskUnits="userSpaceOnUse" x="0" y="0" width="274" height="278">
<rect width="274" height="278" fill="white"/>
</mask>
<g mask="url(#mask0_136_2124)">
<rect x="-723.824" y="-13" width="1008.52" height="291" fill="white"/>
<mask id="mask1_136_2124" style="mask-type:alpha" maskUnits="userSpaceOnUse" x="-93" y="-33" width="431" height="506">
<rect x="-92.4492" y="-32.9602" width="429.671" height="505.31" rx="12" fill="url(#paint0_radial_136_2124)"/>
</mask>
<g mask="url(#mask1_136_2124)">
<path d="M157.15 -87L157.15 224.5M157.15 -87L-50.3496 -87L53.4004 68.75M157.15 -87L364 -87M157.15 -87L260.575 68.75M157.15 536L364 536M157.15 536L157.15 224.5M157.15 536L-51 536M157.15 536L53.0752 380.25M364 536L260.575 380.25M364 536L364 224.5M157.15 224.5L53.0752 380.25M157.15 224.5L260.575 68.75M157.15 224.5L260.575 380.25M157.15 224.5L53.4004 68.75M364 -87L260.575 68.75M364 -87L364 224.5M-51 536L53.0752 380.25M-51 536L-51 238.5M260.575 380.25L364 224.5M53.4004 68.75L-51 238.5M-51 238.5L-51.0001 -87" stroke="url(#paint1_linear_136_2124)" stroke-width="1.4"/>
<path d="M157.15 -205L157.15 106.5M157.15 -205L-50.3496 -205L53.4004 -49.25M157.15 -205L364 -205M157.15 -205L260.575 -49.25M157.15 418L364 418M157.15 418L157.15 106.5M157.15 418L-51 418M157.15 418L53.0752 262.25M364 418L260.575 262.25M364 418L364 106.5M157.15 106.5L53.0752 262.25M157.15 106.5L260.575 -49.25M157.15 106.5L260.575 262.25M157.15 106.5L53.4004 -49.25M364 -205L260.575 -49.25M364 -205L364 106.5M-51 418L53.0752 262.25M-51 418L-51 120.5M260.575 262.25L364 106.5M53.4004 -49.25L-51 120.5M-51 120.5L-51.0001 -205" stroke="url(#paint2_linear_136_2124)" stroke-width="1.4"/>
</g>
</g>
<defs>
<radialGradient id="paint0_radial_136_2124" cx="0" cy="0" r="1" gradientUnits="userSpaceOnUse" gradientTransform="translate(122.387 90.4296) rotate(90) scale(355.48 302.269)">
<stop stop-color="#CDCDCD"/>
<stop offset="0.950922" stop-color="white" stop-opacity="0.32"/>
</radialGradient>
<linearGradient id="paint1_linear_136_2124" x1="157.803" y1="618.025" x2="156" y2="-109" gradientUnits="userSpaceOnUse">
<stop offset="0.0512577" stop-color="#EBE8D8" stop-opacity="0"/>
<stop offset="0.374742" stop-color="#EBE8D8"/>
<stop offset="0.873444" stop-color="#EBE8D8" stop-opacity="0.42"/>
<stop offset="1" stop-color="#EBE8D8" stop-opacity="0"/>
</linearGradient>
<linearGradient id="paint2_linear_136_2124" x1="157.803" y1="500.025" x2="156" y2="-227" gradientUnits="userSpaceOnUse">
<stop offset="0.0512577" stop-color="#EBE8D8" stop-opacity="0"/>
<stop offset="0.374742" stop-color="#EBE8D8"/>
<stop offset="0.873444" stop-color="#EBE8D8" stop-opacity="0.42"/>
<stop offset="1" stop-color="#EBE8D8" stop-opacity="0"/>
</linearGradient>
</defs>
</svg>
