<svg width="274" height="278" viewBox="0 0 274 278" fill="none" xmlns="http://www.w3.org/2000/svg">
<mask id="mask0_136_1729" style="mask-type:alpha" maskUnits="userSpaceOnUse" x="0" y="0" width="274" height="278">
<rect width="274" height="278" fill="white"/>
</mask>
<g mask="url(#mask0_136_1729)">
<rect x="-723.824" y="-13" width="1008.52" height="291" fill="white"/>
<mask id="mask1_136_1729" style="mask-type:alpha" maskUnits="userSpaceOnUse" x="-1" y="-1" width="275" height="279">
<rect x="-1" y="-0.000244141" width="275" height="278" rx="12" fill="url(#paint0_radial_136_1729)"/>
</mask>
<g mask="url(#mask1_136_1729)">
<path d="M156.545 -133.131L-115 424.083H156.545M156.545 -133.131V424.083M156.545 -133.131L424.637 441.632L156.545 424.083M156.545 -133.131H-115L156.545 424.083M156.545 -133.131L435 -168.829L156.545 424.083M156.545 -133.131V-226M156.545 513V424.083M431.546 145.97H-115" stroke="url(#paint1_linear_136_1729)" stroke-width="1.4"/>
<path d="M111.023 121.515L149.875 177.748L156.521 182.349L200.996 121.515L179.014 99.5336L130.96 100.556L111.023 121.515Z" fill="white"/>
</g>
</g>
<defs>
<radialGradient id="paint0_radial_136_1729" cx="0" cy="0" r="1" gradientUnits="userSpaceOnUse" gradientTransform="translate(136.5 67.8835) rotate(90) scale(195.57 193.459)">
<stop stop-color="#CDCDCD"/>
<stop offset="0.950922" stop-color="white" stop-opacity="0.32"/>
</radialGradient>
<linearGradient id="paint1_linear_136_1729" x1="158.273" y1="-226" x2="158.273" y2="513" gradientUnits="userSpaceOnUse">
<stop offset="0.182416" stop-color="#EBE8D8" stop-opacity="0"/>
<stop offset="0.374742" stop-color="#EBE8D8"/>
<stop offset="0.736039" stop-color="#EBE8D8" stop-opacity="0.42"/>
<stop offset="1" stop-color="#EBE8D8"/>
</linearGradient>
</defs>
</svg>
